<?xml version="1.0" standalone="no"?>
<!DOCTYPE svg PUBLIC "-//W3C//DTD SVG 20010904//EN"
 "http://www.w3.org/TR/2001/REC-SVG-20010904/DTD/svg10.dtd">
<svg version="1.0" xmlns="http://www.w3.org/2000/svg"
 width="82.000000pt" height="82.000000pt" viewBox="0 0 82.000000 82.000000"
 preserveAspectRatio="xMidYMid meet">
<metadata>
Created by potrace 1.14, written by Peter Selinger 2001-2017
</metadata>
<g transform="translate(0.000000,82.000000) scale(0.100000,-0.100000)"
fill="#000000" stroke="none">
<path d="M668 744 c-3 -5 -8 -21 -12 -36 -8 -35 -63 -98 -84 -98 -11 0 -3 -11
22 -32 21 -17 47 -52 58 -77 l20 -46 10 30 c14 41 54 92 78 100 23 7 27 25 5
25 -20 0 -68 63 -81 107 -6 20 -13 33 -16 27z"/>
<path d="M265 681 c-8 -48 -55 -150 -86 -186 -28 -32 -99 -76 -128 -78 -24 -1
-17 -17 8 -17 19 0 85 -41 111 -69 48 -51 99 -163 101 -219 0 -24 1 -25 9 -7
4 11 15 45 24 76 30 103 110 197 186 216 l35 9 -56 26 c-40 18 -69 41 -97 77
-42 53 -82 144 -82 186 0 39 -18 29 -25 -14z"/>
<path d="M601 362 c-1 -39 -40 -102 -77 -124 l-35 -20 33 -17 c23 -11 41 -32
58 -68 14 -29 29 -52 34 -53 5 0 6 3 3 6 -13 13 46 103 74 116 31 14 38 28 14
28 -23 0 -64 51 -85 105 -12 33 -19 42 -19 27z"/>
</g>
</svg>
